<svg width="453" height="204" viewBox="0 0 453 204" fill="none" xmlns="http://www.w3.org/2000/svg">
<path d="M11.243 100.09C13.3786 87.1745 15.7361 61.121 6.00004 50.4998C-1.79715 40.7533 -0.981138 35.6688 11.5273 31.7599C17.6204 29.8558 22.9636 41.0537 24.8454 44.9976L24.89 45.091C26.3327 48.1138 27.4804 51.162 27.4804 54.5365C27.4804 61.2042 26.2707 67.9241 25.6481 74.5647C24.7791 83.8344 26.0353 91.3112 31.0185 99.5526C45.5684 123.616 63.0321 125.035 90.3729 127.716C110.643 129.703 131.175 128 151.5 128H225C246.853 128 274.665 129.634 296.5 129.5L296.594 129.499C308.304 129.428 341.755 129.223 347.5 119C353.662 114.106 348.137 91.9928 344.836 84.9263C342.189 79.2603 339.82 67.444 335 63.4999C323.224 53.8653 319 50.4999 304.5 43.4999C297.275 37.6419 260.419 35.1903 260.5 24.9615C260.614 10.5872 319.772 25.495 330 26C334.715 26.2329 342.246 19.3333 352 16C361.659 12.6993 381.032 24.9828 387.5 21.5C428.5 14 428 1.69972 435.5 1.5C446.33 1.21162 455.437 10.3159 451.384 24.214C449.731 30.8256 399 24.9999 394.5 48C395.328 50.8968 393.805 52.656 396.5 54.4999C402.057 58.302 437.267 55.1805 442.5 59.5C445.802 62.2257 448.658 66.5486 446.101 70.7461C438.5 81 432.341 74.1137 428.5 75C423.335 76.1918 406.771 75 401.5 75C389.608 75 378.5 81.8342 378.5 92.4999C378.5 116.445 390.5 145 326.134 187.721C279.33 203.86 240 201 179.24 202.758C120 202.758 110.294 206.276 70 193.5C47.7002 186.429 26.0456 169.664 19 147.5C15.6423 136.937 9.41179 111.164 11.243 100.09Z" fill="#E6851E" stroke="#E6851E" stroke-linecap="round"/>
</svg>
