<svg width="106" height="58" viewBox="0 0 106 58" fill="none" xmlns="http://www.w3.org/2000/svg">
<path d="M55.3102 0C-13.9145 1.85341 50.9463 45.9529 1.5 58H78C25.3892 58 119.393 -1.38435e-06 55.3102 0Z" fill="#000D0E"/>
<path d="M106 58C66.5 52.5 71.5 15.5 78.5 12.5C62.5 14 54.8949 13.8463 44.5 23C29.0143 36.6367 41 56.5 36 58H106Z" fill="#317160"/>
<path d="M48 0.5C-10.1488 2.13352 43.0349 47.3822 1.5 58H70.5C26.3069 58 26.5 3.9767 48 0.5Z" fill="#105341"/>
<path d="M70.5 58C31 52.5 34 24.5 34 23.5C33 26 34.3949 36.3463 24 45.5C8.5143 59.1367 5.5 56.5 0.5 58H70.5Z" fill="#317160"/>
</svg>
